<svg xmlns="http://www.w3.org/2000/svg" xmlns:xlink="http://www.w3.org/1999/xlink" id="Layer_1" x="0" y="0" enable-background="new 0 0 128 128" version="1.1" viewBox="0 0 128 128" xml:space="preserve"><rect width="18.3" height="18.3"/><rect width="18.3" height="18.3" x="18.3" fill="#FFF"/><rect width="18.3" height="18.3" x="36.6"/><rect width="18.3" height="18.3" x="54.9" fill="#FFF"/><rect width="18.3" height="18.3" x="73.1"/><rect width="18.3" height="18.3" x="91.2" fill="#FFF"/><rect width="18.3" height="18.3" x="109.7"/><rect width="18.3" height="18.3" y="18.3" fill="#FFF"/><rect width="18.3" height="18.3" x="18.3" y="18.3"/><rect width="18.3" height="18.3" x="36.6" y="18.3" fill="#FFF"/><rect width="18.3" height="18.3" x="54.9" y="18.3"/><rect width="18.3" height="18.3" x="73.1" y="18.3" fill="#FFF"/><rect width="18.3" height="18.3" x="91.4" y="18.3"/><rect width="18.3" height="18.3" x="109.7" y="18.3" fill="#FFF"/><rect width="18.3" height="18.3" y="36.6"/><rect width="18.3" height="18.3" x="18.3" y="36.6" fill="#FFF"/><rect width="18.3" height="18.3" x="36.6" y="36.6"/><rect width="18.3" height="18.3" x="54.9" y="36.6" fill="#FFF"/><rect width="18.3" height="18.3" x="73.1" y="36.6"/><rect width="18.3" height="18.3" x="91.2" y="36.6" fill="#FFF"/><rect width="18.3" height="18.3" x="109.7" y="36.6"/><rect width="18.3" height="18.3" y="54.9" fill="#FFF"/><rect width="18.3" height="18.3" x="18.3" y="54.9"/><rect width="18.3" height="18.3" x="36.6" y="54.9" fill="#FFF"/><rect width="18.3" height="18.3" x="54.9" y="54.9"/><rect width="18.3" height="18.3" x="73.1" y="54.9" fill="#FFF"/><rect width="18.3" height="18.3" x="91.4" y="54.9"/><rect width="18.3" height="18.3" x="109.7" y="54.9" fill="#FFF"/><rect width="18.3" height="18.3" y="73.1"/><rect width="18.3" height="18.3" x="18.3" y="73.1" fill="#FFF"/><rect width="18.3" height="18.3" x="36.6" y="73.1"/><rect width="18.3" height="18.3" x="54.9" y="73.1" fill="#FFF"/><rect width="18.3" height="18.3" x="73.1" y="73.1"/><rect width="18.3" height="18.3" x="91.2" y="73.1" fill="#FFF"/><rect width="18.3" height="18.3" x="109.7" y="73.1"/><rect width="18.3" height="18.3" y="91.4" fill="#FFF"/><rect width="18.3" height="18.3" x="18.3" y="91.4"/><rect width="18.3" height="18.3" x="36.6" y="91.4" fill="#FFF"/><rect width="18.3" height="18.3" x="54.9" y="91.4"/><rect width="18.3" height="18.3" x="73.1" y="91.4" fill="#FFF"/><rect width="18.3" height="18.3" x="91.4" y="91.4"/><rect width="18.3" height="18.3" x="109.7" y="91.4" fill="#FFF"/><rect width="18.3" height="18.3" y="109.7"/><rect width="18.3" height="18.3" x="18.3" y="109.7" fill="#FFF"/><rect width="18.3" height="18.3" x="36.6" y="109.7"/><rect width="18.3" height="18.3" x="54.9" y="109.7" fill="#FFF"/><rect width="18.3" height="18.3" x="73.1" y="109.7"/><rect width="18.3" height="18.3" x="91.2" y="109.7" fill="#FFF"/><rect width="18.3" height="18.3" x="109.7" y="109.7"/></svg>